<svg xmlns="http://www.w3.org/2000/svg" id="Layer_2" data-name="Layer 2" viewBox="0 0 823.91 301.45"><defs><style>      .cls-1 {        fill: #fff;      }    </style></defs><g id="Layer_1-2" data-name="Layer 1"><g id="LOGO_PRIM&#xC1;RIO_-_6" data-name="LOGO PRIM&#xC1;RIO - 6"><g><path class="cls-1" d="m0,38.52v4.33h4.47c10.12,0,18.33,8.2,18.33,18.33v217.62c0,10.12-8.2,18.33-18.33,18.33H0v4.33h68.37v-4.33h-4.47c-10.12,0-18.33-8.2-18.33-18.33V42.86h101.2c24,0,43.45,19.45,43.45,43.45v15.88h4.33v-63.68s-194.56,0-194.56,0Z"></path><path class="cls-1" d="m274.33,262.93v-4.33h-4.47c-10.12,0-18.33-8.2-18.33-18.33V22.65c0-10.12,8.2-18.33,18.33-18.33h4.47V0h-68.37v4.33h4.47c10.12,0,18.33,8.2,18.33,18.33v235.93h-101.2c-24,0-43.45-19.45-43.45-43.45v-15.88h-4.33v63.68s194.56,0,194.56,0Z"></path><path class="cls-1" d="m157.78,173.51h-.13c-9.86,0-17.9-7.79-18.31-17.55v-53.78h-4.33v3.07c0,10.12-8.2,18.33-18.33,18.33h-36.92v4.35h36.78s.13,0,.13,0c9.86,0,17.9,7.79,18.31,17.55v53.78h4.33v-3.07c0-10.12,8.2-18.33,18.33-18.33h36.92s0-4.35,0-4.35h-36.78Z"></path></g><g><path class="cls-1" d="m341.18,102.86v2.78h-23.2v21.45h23.2v2.78h-23.2v24.37h-3.29v-51.38h26.5Z"></path><path class="cls-1" d="m572.72,102.86v2.78h-23.2v21.45h23.2v2.78h-23.2v24.37h-3.29v-51.38h26.5Z"></path><path class="cls-1" d="m352.86,151.46h19.1v2.78h-22.4v-51.38h3.29v48.6Z"></path><path class="cls-1" d="m402.89,102.86h-3.66l-18.88,51.38h3.59l4.9-13.48h24.37l4.9,13.48h3.59l-18.81-51.38Zm-13.03,35.05l11.2-30.63,11.13,30.63h-22.32Z"></path><path class="cls-1" d="m643.73,102.86h-3.66l-18.88,51.38h3.59l4.9-13.48h24.37l4.9,13.48h3.59l-18.81-51.38Zm-13.03,35.05l11.2-30.63,11.13,30.63h-22.32Z"></path><path class="cls-1" d="m502.24,102.86h-3.66l-18.88,51.38h3.59l4.9-13.48h24.37l4.9,13.48h3.59l-18.81-51.38Zm-13.03,35.05l11.2-30.63,11.13,30.63h-22.32Z"></path><path class="cls-1" d="m459.63,102.86l-19.62,51.38h-3.66l-19.54-51.38h3.59l17.79,47.5,17.93-47.5h3.51Z"></path><path class="cls-1" d="m471.31,102.86v51.38h-3.29v-51.38h3.29Z"></path><path class="cls-1" d="m608.85,154.24l-13.18-21.88h-11.27v21.88h-3.29v-51.38h14.13c5.71,0,9.99,1.34,12.85,4.03,2.85,2.68,4.28,6.25,4.28,10.69,0,3.95-1.11,7.21-3.33,9.77-2.22,2.56-5.45,4.14-9.7,4.72l13.47,22.18h-3.95Zm-24.45-24.67h10.98c4.54,0,7.93-1.1,10.17-3.29,2.24-2.2,3.37-5.1,3.37-8.71,0-7.86-4.56-11.78-13.69-11.78h-10.83v23.79Z"></path><path class="cls-1" d="m707.67,154.24h-3.29l-30.16-46.03v46.03h-3.29v-51.38h3.29l30.16,45.88v-45.88h3.29v51.38Z"></path><path class="cls-1" d="m719.94,115.31c2.12-3.9,5.05-6.95,8.78-9.15,3.73-2.2,7.92-3.3,12.55-3.3,5.86,0,10.78,1.34,14.78,4.02,4,2.68,6.93,6.43,8.78,11.27h-3.81c-1.46-3.83-3.89-6.85-7.28-9.08-3.39-2.22-7.55-3.34-12.48-3.34-3.95,0-7.54.92-10.76,2.76-3.22,1.84-5.76,4.5-7.61,7.97-1.86,3.47-2.78,7.52-2.78,12.16s.93,8.6,2.78,12.02c1.85,3.42,4.39,6.06,7.61,7.93,3.22,1.87,6.81,2.8,10.76,2.8,4.93,0,9.09-1.11,12.48-3.34,3.39-2.22,5.82-5.25,7.28-9.08h3.81c-1.86,4.83-4.78,8.59-8.78,11.27-4,2.68-8.93,4.02-14.78,4.02-4.64,0-8.82-1.09-12.55-3.27-3.73-2.18-6.66-5.21-8.78-9.11-2.12-3.9-3.18-8.31-3.18-13.24s1.06-9.41,3.18-13.31Z"></path><path class="cls-1" d="m786.07,150.98c-3.81-2.18-6.78-5.23-8.93-9.15-2.15-3.92-3.22-8.35-3.22-13.28s1.07-9.41,3.22-13.31c2.15-3.9,5.12-6.94,8.93-9.11,3.81-2.18,8.07-3.27,12.81-3.27s9,1.09,12.81,3.27c3.81,2.18,6.78,5.22,8.93,9.11,2.15,3.9,3.22,8.34,3.22,13.31s-1.07,9.35-3.22,13.28c-2.15,3.92-5.12,6.97-8.93,9.15-3.81,2.18-8.08,3.27-12.81,3.27s-9-1.09-12.81-3.27Zm23.79-2.4c3.27-1.87,5.84-4.52,7.72-7.97,1.88-3.44,2.82-7.46,2.82-12.06s-.94-8.68-2.82-12.13c-1.88-3.44-4.45-6.1-7.72-7.97-3.27-1.87-6.93-2.8-10.98-2.8s-7.71.93-10.98,2.8c-3.27,1.87-5.86,4.52-7.76,7.97-1.9,3.44-2.85,7.49-2.85,12.13s.95,8.61,2.85,12.06c1.9,3.44,4.49,6.1,7.76,7.97,3.27,1.87,6.93,2.8,10.98,2.8s7.71-.93,10.98-2.8Z"></path><polygon class="cls-1" points="394.52 93.46 394.52 97.55 407.52 88.01 407.52 83.92 394.52 93.46"></polygon></g><g><path class="cls-1" d="m548.81,198.88c-.79-.35-1.41-.85-1.85-1.47-.45-.63-.68-1.35-.69-2.18h2.1c.07.71.36,1.3.88,1.79.51.48,1.26.73,2.24.73s1.68-.23,2.22-.7c.54-.47.81-1.07.81-1.81,0-.58-.16-1.05-.48-1.41-.32-.36-.72-.64-1.19-.82-.48-.19-1.12-.39-1.93-.61-1-.26-1.8-.52-2.4-.78-.6-.26-1.11-.67-1.54-1.22-.43-.56-.64-1.3-.64-2.24,0-.82.21-1.55.63-2.19.42-.64,1.01-1.13,1.77-1.47s1.63-.52,2.61-.52c1.42,0,2.58.35,3.48,1.06.9.71,1.41,1.65,1.53,2.82h-2.17c-.07-.58-.38-1.09-.91-1.53-.53-.44-1.24-.66-2.12-.66-.82,0-1.5.21-2.02.64-.52.43-.78,1.02-.78,1.79,0,.55.15,1,.47,1.34.31.35.69.61,1.15.79.45.18,1.09.39,1.92.62,1,.27,1.8.55,2.41.81s1.13.68,1.56,1.23c.43.56.65,1.31.65,2.26,0,.74-.2,1.43-.59,2.08s-.97,1.18-1.73,1.58c-.77.4-1.67.61-2.71.61s-1.89-.18-2.68-.53Z"></path><path class="cls-1" d="m571.44,195.9h-6.59l-1.21,3.36h-2.08l5.46-15.02h2.28l5.44,15.02h-2.08l-1.21-3.36Zm-.56-1.6l-2.73-7.63-2.73,7.63h5.46Z"></path><path class="cls-1" d="m582.15,184.15v9.56c0,1.34.33,2.34.99,2.99.66.65,1.57.98,2.74.98s2.06-.33,2.72-.98c.66-.65.99-1.65.99-2.99v-9.56h1.97v9.54c0,1.26-.25,2.32-.76,3.17-.51.86-1.19,1.5-2.05,1.92-.86.42-1.82.63-2.89.63s-2.03-.21-2.89-.63c-.86-.42-1.54-1.06-2.04-1.92-.5-.86-.75-1.92-.75-3.17v-9.54h1.97Zm5.83-3.27l-4.62,2.47v-1.47l4.62-2.71v1.71Z"></path><path class="cls-1" d="m606.93,185.07c1.21.61,2.13,1.49,2.77,2.63.64,1.14.96,2.48.96,4.03s-.32,2.89-.96,4.02c-.64,1.13-1.57,2-2.77,2.6-1.21.6-2.63.9-4.28.9h-4.7v-15.11h4.7c1.65,0,3.07.31,4.28.92Zm.18,11.01c1.03-1.03,1.54-2.48,1.54-4.35s-.52-3.34-1.55-4.4c-1.03-1.05-2.52-1.58-4.45-1.58h-2.73v11.88h2.73c1.95,0,3.44-.52,4.46-1.55Z"></path><path class="cls-1" d="m618.34,185.75v5.05h5.51v1.63h-5.51v5.2h6.16v1.63h-8.13v-15.13h8.13v1.63h-6.16Z"></path><path class="cls-1" d="m647.43,199.25l-3.6-6.18h-2.38v6.18h-1.97v-15.11h4.88c1.14,0,2.11.19,2.89.58.79.39,1.38.92,1.77,1.58s.58,1.42.58,2.28c0,1.04-.3,1.96-.9,2.75-.6.79-1.5,1.32-2.7,1.58l3.79,6.33h-2.36Zm-5.98-7.76h2.9c1.07,0,1.87-.26,2.41-.79.53-.53.8-1.23.8-2.11s-.26-1.59-.79-2.08c-.53-.49-1.33-.74-2.42-.74h-2.9v5.72Z"></path><path class="cls-1" d="m657.72,185.75v5.05h5.51v1.63h-5.51v5.2h6.16v1.63h-8.13v-15.13h8.13v1.63h-6.16Z"></path><path class="cls-1" d="m681.41,188.53c-.42-.88-1.03-1.56-1.82-2.05s-1.72-.73-2.77-.73-2,.24-2.85.73c-.85.48-1.51,1.18-1.99,2.08-.48.9-.73,1.95-.73,3.13s.24,2.22.73,3.12c.48.9,1.15,1.59,1.99,2.07.84.48,1.8.73,2.85.73,1.47,0,2.69-.44,3.64-1.32.95-.88,1.51-2.07,1.67-3.58h-6.02v-1.6h8.13v1.52c-.12,1.24-.51,2.38-1.17,3.41-.66,1.03-1.54,1.85-2.62,2.45-1.08.6-2.29.9-3.62.9-1.4,0-2.68-.33-3.84-.99-1.16-.66-2.07-1.57-2.74-2.74-.67-1.17-1.01-2.49-1.01-3.97s.34-2.8,1.01-3.98c.67-1.18,1.59-2.09,2.74-2.75,1.16-.66,2.43-.99,3.84-.99,1.6,0,3.02.4,4.26,1.19,1.24.8,2.14,1.92,2.7,3.36h-2.36Z"></path><path class="cls-1" d="m691.9,185.75v5.05h5.51v1.63h-5.51v5.2h6.16v1.63h-8.13v-15.13h8.13v1.63h-6.16Z"></path><path class="cls-1" d="m716.02,199.25h-1.97l-7.93-12.03v12.03h-1.97v-15.13h1.97l7.93,12.01v-12.01h1.97v15.13Z"></path><path class="cls-1" d="m724.45,185.75v5.05h5.51v1.63h-5.51v5.2h6.16v1.63h-8.13v-15.13h8.13v1.63h-6.16Z"></path><path class="cls-1" d="m744.65,199.25l-3.6-6.18h-2.38v6.18h-1.97v-15.11h4.88c1.14,0,2.11.19,2.89.58.79.39,1.38.92,1.77,1.58s.58,1.42.58,2.28c0,1.04-.3,1.96-.9,2.75s-1.5,1.32-2.7,1.58l3.79,6.33h-2.36Zm-5.98-7.76h2.9c1.07,0,1.87-.26,2.41-.79.53-.53.8-1.23.8-2.11s-.26-1.59-.79-2.08c-.53-.49-1.33-.74-2.42-.74h-2.9v5.72Z"></path><path class="cls-1" d="m761.9,195.9h-6.59l-1.21,3.36h-2.08l5.46-15.02h2.28l5.44,15.02h-2.08l-1.21-3.36Zm-.56-1.6l-2.73-7.63-2.73,7.63h5.46Z"></path><path class="cls-1" d="m779.98,184.15v1.6h-4.12v13.5h-1.97v-13.5h-4.14v-1.6h10.23Z"></path><path class="cls-1" d="m787.47,184.15v15.11h-1.97v-15.11h1.97Z"></path><path class="cls-1" d="m806.42,184.15l-5.7,15.11h-2.28l-5.7-15.11h2.1l4.75,13.03,4.75-13.03h2.08Z"></path><path class="cls-1" d="m820.61,195.9h-6.59l-1.21,3.36h-2.08l5.46-15.02h2.28l5.44,15.02h-2.08l-1.21-3.36Zm-.56-1.6l-2.73-7.63-2.73,7.63h5.46Z"></path></g></g></g></svg>